<svg height="18" viewBox="0 0 24 24" width="18" fill="#FFF" xmlns="http://www.w3.org/2000/svg"><path d="M0-.27h24v24H0Z" fill="none"/><path style="fill:#fdfdfd;fill-opacity:1;stroke-width:1" d="M8.6 1.27 6.7 4.45l-3.61.82.34 3.68L1 11.73l2.44 2.79-.34 3.68 3.61.82L8.6 22.2l3.4-1.47 3.4 1.47 1.89-3.18 3.61-.82-.34-3.68L23 11.73l-2.44-2.78.34-3.68-3.61-.82-1.89-3.18L12 2.73Z"/><path style="fill:#000000;fill-opacity:0.30000001;stroke-width:0.75" d="m1.19 9.3-.44.5 1.83 2.09-.26 2.76 2.71.62 1.42 2.38L9 16.55l2.55 1.1 1.42-2.39 2.7-.61-.25-2.76 1.83-2.09-.44-.5H1.2z" transform="scale(1.33333)"/><path style="fill:#808080;fill-opacity:1;stroke-width:0.75" d="M6.45 1.15 5.03 3.54l-2.7.6.25 2.77L.75 9l1.83 2.09-.26 2.76 2.71.62 1.42 2.38L9 15.75l2.55 1.1 1.42-2.39 2.7-.61-.25-2.76L17.25 9l-1.83-2.09.26-2.76-2.71-.61-1.42-2.39L9 2.25Z" transform="matrix(1.33333 0 0 1.33333 0 -.27)"/><path style="fill:#000000;fill-opacity:0.30000001;fill-rule:evenodd;stroke-width:1.48055" d="M10.67 8.35v6.58h2.66V8.35Zm0 8v2.67h2.66v-2.67z" transform="translate(0 -.27)"/><path style="fill:#ffffff;fill-opacity:1;fill-rule:evenodd;stroke-width:1.22422" d="M10.67 6.93v6h2v-6Zm0 7.3v2.43h2v-2.43z" transform="matrix(1.33333 0 0 1.09695 -3.56 -.94)"/><path style="fill:#fdfdfd;fill-opacity:0.30000001;stroke-width:1" d="M8.6 1.27 6.7 4.45l-3.61.81.12 1.31 3.5-.78L8.6 2.6 12 4.07l3.4-1.46 1.89 3.18 3.5.79.11-1.3-3.61-.83-1.89-3.18L12 2.73Zm-5.27 7.8L1 11.73l.58.67 1.86-2.12Zm17.34.01-.11 1.2 1.85 2.12.59-.67zM3.33 15.72v.01zm17.34 0v.01z"/></svg>